<svg id="Layer_1" data-name="Layer 1" xmlns="http://www.w3.org/2000/svg" xmlns:xlink="http://www.w3.org/1999/xlink" viewBox="0 0 384 288"><defs><style>.cls-1{fill:url(#linear-gradient);}.cls-2{fill:url(#linear-gradient-2);}.cls-3{fill:url(#linear-gradient-3);}.cls-4{fill:url(#linear-gradient-4);}</style><linearGradient id="linear-gradient" x1="286.95" y1="330.82" x2="97.57" y2="2.81" gradientUnits="userSpaceOnUse"><stop offset="0" stop-color="#aedcf4"/><stop offset="0.2" stop-color="#d256e9"/><stop offset="0.3" stop-color="#a757e9"/><stop offset="0.42" stop-color="#9c5ee9"/><stop offset="0.76" stop-color="#6b7eea"/><stop offset="0.85" stop-color="#6682ea"/><stop offset="1" stop-color="#aedcf4"/></linearGradient><linearGradient id="linear-gradient-2" x1="234.73" y1="237.01" x2="149.27" y2="88.99" xlink:href="#linear-gradient"/><linearGradient id="linear-gradient-3" x1="302.31" y1="98.56" x2="290.69" y2="78.44" xlink:href="#linear-gradient"/><linearGradient id="linear-gradient-4" x1="208" y1="190.72" x2="176" y2="135.28" xlink:href="#linear-gradient"/></defs><title>camera-icon</title><path class="cls-1" d="M353.5,48H291.8C259.7,12,249.6,0,237.3,0H148.8c-12.3,0-22.2,12-54.5,48H81V32H47V48H33.5C15.9,48,0,61.2,0,78.7v176C0,272.2,15.9,288,33.5,288h320c17.6,0,30.5-15.8,30.5-33.3V78.7C384,61.2,371.1,48,353.5,48ZM368,254.7c0,9.3-6.2,17.3-14.5,17.3H33.5c-8.7,0-17.5-8.7-17.5-17.3V78.7C16,70.5,24.1,64,33.5,64h67.8l4.8-3.2c4-4.5,7.7-10,11.1-13.8,11.3-12.7,19.5-21.7,25.3-26.9,4.7-4.2,6.2-4.1,6.2-4.1h88.5s1.6-.1,6.7,4.5C250,26,258.6,37,270.5,50.3q4.35,5,9.3,10.5l4.8,3.2h68.9c8.8,0,14.5,6,14.5,14.7v176Z"/><path class="cls-2" d="M192,77.5A85.5,85.5,0,1,0,277.5,163,85.65,85.65,0,0,0,192,77.5Zm0,155A69.5,69.5,0,1,1,261.5,163,69.48,69.48,0,0,1,192,232.5Z"/><rect class="cls-3" x="288" y="80" width="17" height="17"/><circle class="cls-4" cx="192" cy="163" r="32"/></svg>